<svg xmlns="http://www.w3.org/2000/svg" xmlns:xlink="http://www.w3.org/1999/xlink" width="458" height="365" viewBox="0 0 458 365">
  <defs>
    <clipPath id="clip-path">
      <rect id="Rectangle_5" data-name="Rectangle 5" width="458" height="365" transform="translate(25.631 244.825)" fill="#fff" stroke="#707070" stroke-width="1"/>
    </clipPath>
    <linearGradient id="linear-gradient" y1="-5.242" x2="1.001" y2="-5.242" gradientUnits="objectBoundingBox">
      <stop offset="0" stop-color="#5aceed"/>
      <stop offset="1" stop-color="#4f68ca"/>
    </linearGradient>
    <linearGradient id="linear-gradient-2" y1="4.698" x2="0.998" y2="4.698" gradientUnits="objectBoundingBox">
      <stop offset="0" stop-color="#f87b58"/>
      <stop offset="0.41" stop-color="#f89453"/>
      <stop offset="0.71" stop-color="#f8c548"/>
      <stop offset="1" stop-color="#f89c51"/>
    </linearGradient>
    <linearGradient id="linear-gradient-3" y1="-5.542" x2="0.998" y2="-5.542" gradientUnits="objectBoundingBox">
      <stop offset="0" stop-color="#e1a1ed"/>
      <stop offset="1" stop-color="#7658f4"/>
    </linearGradient>
    <linearGradient id="linear-gradient-4" x1="0.001" y1="23.3" x2="1.001" y2="23.3" xlink:href="#linear-gradient"/>
    <clipPath id="clip-path-2">
      <rect id="Rectangle_6" data-name="Rectangle 6" width="6.303" height="9.756"/>
    </clipPath>
    <clipPath id="clip-path-3">
      <rect id="Rectangle_7" data-name="Rectangle 7" width="11.636" height="42.344"/>
    </clipPath>
    <linearGradient id="linear-gradient-5" x1="8.745" y1="9.034" x2="9.745" y2="9.034" gradientUnits="objectBoundingBox">
      <stop offset="0" stop-color="#f87b58"/>
      <stop offset="0.5" stop-color="#f8c548"/>
      <stop offset="1" stop-color="#f89c51"/>
    </linearGradient>
    <linearGradient id="linear-gradient-6" x1="0.001" y1="25.866" x2="0.999" y2="25.866" gradientUnits="objectBoundingBox">
      <stop offset="0" stop-color="#4f68ca"/>
      <stop offset="1" stop-color="#5aceed"/>
    </linearGradient>
    <linearGradient id="linear-gradient-7" x1="19.69" y1="28.549" x2="20.691" y2="28.549" gradientUnits="objectBoundingBox">
      <stop offset="0" stop-color="#7658f4"/>
      <stop offset="1" stop-color="#e1a1ed"/>
    </linearGradient>
    <linearGradient id="linear-gradient-8" x1="35.487" y1="101.004" x2="36.49" y2="101.004" xlink:href="#linear-gradient-6"/>
    <linearGradient id="linear-gradient-9" x1="30.533" y1="-35.381" x2="31.611" y2="-36.015" gradientUnits="objectBoundingBox">
      <stop offset="0" stop-color="#7a5bf5"/>
      <stop offset="1" stop-color="#cd94ef"/>
    </linearGradient>
    <linearGradient id="linear-gradient-10" x1="39.612" y1="-66.919" x2="40.54" y2="-67.721" gradientUnits="objectBoundingBox">
      <stop offset="0" stop-color="#7a5bf5"/>
      <stop offset="1" stop-color="#e5a4ed"/>
    </linearGradient>
  </defs>
  <g id="Mask_Group_2" data-name="Mask Group 2" transform="translate(-25.631 -244.825)" clip-path="url(#clip-path)">
    <g id="bg3-1" transform="translate(25.993 300.31)">
      <g id="Group_1" data-name="Group 1" transform="translate(0.207 0)">
        <path id="Path_49" data-name="Path 49" d="M454.255,80.08S479.814,166.936,383.4,212.8c-22.788,10.84-73-11.924-113.871-9.688-77.3,4.268-135.9,30.013-173.993,14.77-42.6-17.005-58.321-33.536-64.762-45.122-1.662-3.049-4.017-6.165-5.749-9.079C13.94,145.8-20.831,79.132,18.3,35.433,51.62-1.83,117.144-1.695,149.837,1.083a95.029,95.029,0,0,1,33.593,9.282C204,20.392,241.474,38.075,257.336,42c29.853,7.385,34.425,6.1,90.044-17.141S443.173,2.709,454.255,80.08Z" transform="translate(-0.18 -0.003)" fill="#e9edfb"/>
      </g>
      <g id="Layer_3" transform="translate(54.278 63.091)">
        <path id="Path_50" data-name="Path 50" d="M42.151,131.486S83.71,52.693,131.5,51.27s47.1,51.965,60.745,60.162,28.121,5.962,38.719-11.856,22.719-50.948,45.507-49.458,48.693,71,62.338,71,38.788-53.049,61.3-52.235c23.273.813,39.273,62.8,39.273,62.8l-35.948-.135Z" transform="translate(-42.151 -50.069)" fill="#e1e6fb"/>
      </g>
      <g id="Layer_5" transform="translate(0 4.671)">
        <g id="Layer_4" transform="translate(0 38.753)">
          <path id="Path_51" data-name="Path 51" d="M11.769,127.087l137.975,1.694s11.5-.678,23.273-9.485c8.935-6.707,12.052-11.518,12.052-16.26s-4.5-29.133-48.485-33.875L1.934,66.721a66.953,66.953,0,0,0-1.8,12.127A67.812,67.812,0,0,0,.41,90.095c.485,4.336,1.177,8.672,2.078,12.94C5.051,114.417,8.514,121.87,11.769,127.087Z" transform="translate(-0.019 -26.071)" fill="#bac5f4"/>
          <ellipse id="Ellipse_1" data-name="Ellipse 1" cx="26.667" cy="7.114" rx="26.667" ry="7.114" transform="translate(107.404 53.997)" fill="#fff"/>
          <ellipse id="Ellipse_2" data-name="Ellipse 2" cx="7.273" cy="7.114" rx="7.273" ry="7.114" transform="translate(20.824 64.837)" fill="#fff"/>
          <ellipse id="Ellipse_3" data-name="Ellipse 3" cx="7.619" cy="7.453" rx="7.619" ry="7.453" transform="translate(41.603 64.837)" fill="#fff"/>
          <ellipse id="Ellipse_4" data-name="Ellipse 4" cx="7.619" cy="7.453" rx="7.619" ry="7.453" transform="translate(41.603 64.837)" fill="#fff"/>
          <ellipse id="Ellipse_5" data-name="Ellipse 5" cx="7.619" cy="7.453" rx="7.619" ry="7.453" transform="translate(63.768 64.837)" fill="#fff"/>
          <ellipse id="Ellipse_6" data-name="Ellipse 6" cx="11.013" cy="10.772" rx="11.013" ry="10.772" transform="translate(233.535 25.948)" fill="#fff"/>
          <ellipse id="Ellipse_7" data-name="Ellipse 7" cx="8.797" cy="8.604" rx="8.797" ry="8.604" transform="translate(223.977 28.929)" fill="#fff"/>
          <ellipse id="Ellipse_8" data-name="Ellipse 8" cx="12.745" cy="12.466" rx="12.745" ry="12.466" transform="translate(362.922)" fill="#fff"/>
          <ellipse id="Ellipse_9" data-name="Ellipse 9" cx="7.758" cy="7.588" rx="7.758" ry="7.588" transform="translate(381.554 6.165)" fill="#fff"/>
          <ellipse id="Ellipse_10" data-name="Ellipse 10" cx="7.758" cy="7.588" rx="7.758" ry="7.588" transform="translate(354.679 7.453)" fill="#fff"/>
          <ellipse id="Ellipse_11" data-name="Ellipse 11" cx="7.619" cy="7.453" rx="7.619" ry="7.453" transform="translate(85.24 64.837)" fill="#fff"/>
          <path id="Path_52" data-name="Path 52" d="M13.014,120.324l435.605.339s-14.961,44.851-25.42,53.455,9.628,50-67.6,23.306-119.9.813-142.477,4.336S131.11,233.6,106.937,219.781s-12.883-30.217-57.975-31.03S6.3,143.9,6.3,143.9l6.719-23.577" transform="translate(1.783 -12.126)" fill="#f5f5fc"/>
        </g>
        <path id="Path_53" data-name="Path 53" d="M447.855,122.077,12.25,121.806l-3.325-7.182,440.8.135Z" transform="translate(2.548 25.144)" fill="#fff"/>
        <path id="Path_54" data-name="Path 54" d="M60.5,144.359H56.414L56.345,4.59,60.5,3.71Z" transform="translate(16.22 -3.71)" fill="#fff"/>
        <path id="Path_55" data-name="Path 55" d="M152.206,144.016H148.12V11.022l4.017,1.9Z" transform="translate(42.679 -1.808)" fill="#fff"/>
        <path id="Path_56" data-name="Path 56" d="M242.046,140.327h-4.087V32.807l4.087-1.355Z" transform="translate(68.581 3.507)" fill="#fff"/>
        <path id="Path_57" data-name="Path 57" d="M327.316,143.946h-4.087V11.29l4.156,1.626Z" transform="translate(93.165 -1.738)" fill="#fff"/>
      </g>
      <g id="Layer_6" transform="translate(289.501 136.445)">
        <path id="Path_58" data-name="Path 58" d="M224.948,152.783H235.13V145.2h99.187v7.995h8.935V132.8l-118.3.407Z" transform="translate(-224.671 -101.903)" fill="#bac5f4"/>
        <path id="Path_59" data-name="Path 59" d="M225.225,131.4l118.1-.271v-4.946l-118.373.271Z" transform="translate(-224.671 -103.623)" fill="#bac5f4"/>
        <path id="Path_60" data-name="Path 60" d="M225.01,125.58l118.1-.271v-4.878l-118.373.2Z" transform="translate(-224.733 -105.12)" fill="#bac5f4"/>
        <path id="Path_61" data-name="Path 61" d="M225.225,119.626l118.1-.271V114.41l-118.373.271Z" transform="translate(-224.671 -106.686)" fill="#bac5f4"/>
        <path id="Path_62" data-name="Path 62" d="M225.225,113.43l118.1-.271v-4.878l-118.373.2Z" transform="translate(-224.671 -108.281)" fill="#bac5f4"/>
      </g>
      <g id="map" transform="translate(31 43.486)">
        <g id="Group_2" data-name="Group 2" transform="translate(20.716 175.343)">
          <path id="Path_63" data-name="Path 63" d="M48.889,173.658h-.831l-5.749.068s-1.247,5.488-1.8,7.791a6.906,6.906,0,0,0-.208.813,3.674,3.674,0,0,0-.139,1.219,5.476,5.476,0,0,0,2.84,4.81c2.078,1.016,3.74,2.033,5.887,0s2.494-3.252,1.662-6.707C49.72,178.129,49.443,173.725,48.889,173.658Z" transform="translate(-40.162 -173.658)" fill="#4b44be"/>
          <path id="Path_64" data-name="Path 64" d="M67.7,180.5c-3.74-1.219-6.3-6.165-6.3-6.165l-6.442-.406s-.346,5.081-.485,7.656c-.208,3.388.416,5.014,2.632,4.81,3.048-.271,15.446.881,17.385-.406C77.052,184.428,71.233,181.582,67.7,180.5Z" transform="translate(-36.047 -173.588)" fill="#4b44be"/>
        </g>
        <path id="Path_65" data-name="Path 65" d="M74.737,144.815c.277,2.575-1.662,15.989-1.662,18.564s-5.749,29.878-5.749,29.878l-6.58-.2s1.524-40.311,1.316-42.276c-.139-1.965-8.45-25.339-8.45-25.339s-.623,6.165-.623,8.13-2.216,58.943-2.216,58.943h-6.58l-9.42-84.146-.9-7.182,35.671.881s4.918,40.176,5.195,42.75" transform="translate(-21.259 -17.168)" fill="url(#linear-gradient)"/>
        <path id="Path_66" data-name="Path 66" d="M80.829,101.055l-2.978,2.507.97,3.93,1.247,1.762c-.139.135-.416-.881.97-.136l2.632-.136,2.009-2.574s-1.039-11.789-5.749-19.986ZM77.158,85.472l-.277-1.626-.693-.135.97,1.761M52.015,42.045c1.662-.678,8.1-3.659,9.074-3.049A8.519,8.519,0,0,1,64,43.535c.277,1.22,1.247,2.778,1.455,2.575.693-.678.554,1.965.554,2.778A5.792,5.792,0,0,1,64.482,52,6.671,6.671,0,0,0,63.1,55.053c-.277,1.22-.831,3.726-.346,4.81.554,1.22,7.342,13.279,13.368,23.916l-33.94-5.962L31.443,99.971l4.849,3.794L34.906,108.3l-.9.135s-.762,1.762-1.593.949a1.82,1.82,0,0,0-2.078-.135.9.9,0,0,1-.416.068l-1.108-.2-.693-5.962L38.578,71.719s12.537-11.043,13.3-11.45c.693-.406.97-3.388.277-4.81S50.63,52.681,49.8,51.326a14.885,14.885,0,0,1-1.247-5.285c0-1.355.831-.881.831-.881s.762-2.642,2.424-3.388C52.43,41.367,61.089,39,61.089,39" transform="translate(-22.918 -33.367)" fill="url(#linear-gradient-2)"/>
        <path id="Path_67" data-name="Path 67" d="M39.811,60.312a8.515,8.515,0,0,0-3.74,4.472c-.554,1.9-9.974,19.648-10.459,20.935a25.108,25.108,0,0,0-1.247,11.924c.97,5.556,5.264,6.843,6.026,6.843.416,0-.346-2.846-.485-4.81a16.785,16.785,0,0,1,.693-3.117c.277-1.016,1.178-.745,1.178-1.694,0-1.762,4.433-7.791,6.1-11.111,1.662-3.388,4.779-3.93,5.333-5.42s-4.641,30.217-4.641,30.217-.139,5.556.97,6.1c.97.474,12.952,4.946,15.723,5.962a.622.622,0,0,0,.762-.339h0l1.8-4.946c0-.068.069-.135.139-.068a.067.067,0,0,1,.069.068l1.662,5.352c.069.271.416.407.693.407l14.684-3.117s-.208-26.558.069-31.03c.208-4.336-.346-6.775.485-5.623.9,1.287,8.242,8.4,8.242,10.434a3.2,3.2,0,0,0,1.455,2.846l-.416,9.756s4.156-4.539,4.571-7.046c.416-2.575.554-3.93-.693-6.436-1.247-2.575-7.965-25.745-7.965-25.745s-.693-2.846-5.68-4.268c-4.987-1.491-8.727-3.659-9.628-3.591s-3.671,5.149-4.918,6.64c-.554.678-.416.949-1.177,1.965a1.139,1.139,0,0,1-1.593.2c-.139-.136-.208-.136-.277-.339-.416-.61-.693-1.22-1.039-1.762-.554-1.084-4.849-7.249-4.849-7.249s-10.182,2.507-11.844,3.591" transform="translate(-24.082 -28.735)" fill="url(#linear-gradient-3)"/>
        <path id="Path_68" data-name="Path 68" d="M56.77,40.141s-8.589,2.846-10.182,4.2a7.778,7.778,0,0,0-1.524,1.965s-.831-.339-.831.881c0,0-.346-.813-.623-1.287s-1.316-3.117-.346-5.149a10,10,0,0,1,2.7-3.591c.485-.339,3.394-2.778,6.234-2.642a8.694,8.694,0,0,1,5.195,2.439,9.45,9.45,0,0,0,2.216,1.423c.693.2,2.355,2.371,2.424,4a29.1,29.1,0,0,1-.485,5.149s-.069-.474-.416-.2-1.247-1.491-1.524-2.71C59.333,43.325,56.77,40.141,56.77,40.141Z" transform="translate(-18.668 -34.512)" fill="url(#linear-gradient-4)"/>
        <g id="Group_9" data-name="Group 9" transform="translate(34.985 22.092)" opacity="0.07">
          <g id="Group_8" data-name="Group 8">
            <g id="Group_7" data-name="Group 7">
              <g id="Group_6" data-name="Group 6">
                <g id="Group_5" data-name="Group 5">
                  <g id="Group_4" data-name="Group 4">
                    <g id="Group_3" data-name="Group 3" clip-path="url(#clip-path-2)">
                      <path id="Path_69" data-name="Path 69" d="M57.239,58.562c-.069-.136.97.61-.208-.271-1.732-1.22-.97-6.3-.97-6.3a5.779,5.779,0,0,1-3.117,2.846c-2.216.813-2.909.2.485,2.1s1.593,2.575,1.385,5.081" transform="translate(-51.282 -52.058)"/>
                    </g>
                  </g>
                </g>
              </g>
            </g>
          </g>
        </g>
        <g id="Group_16" data-name="Group 16" transform="translate(14.759 46.076)" opacity="0.07">
          <g id="Group_15" data-name="Group 15">
            <g id="Group_14" data-name="Group 14">
              <g id="Group_13" data-name="Group 13">
                <g id="Group_12" data-name="Group 12">
                  <g id="Group_11" data-name="Group 11">
                    <g id="Group_10" data-name="Group 10" clip-path="url(#clip-path-3)">
                      <path id="Path_70" data-name="Path 70" d="M39.964,77.58l-4.641,27.71s.069,4.946.97,5.623,3.879,1.219,4.571,1.694,7.9,2.846,6.026-1.152c-.416-.881-10.182-6.165-5.749-11.789,4.364-5.623,3.533-13.279,1.524-18.7A24.031,24.031,0,0,1,41,71.076Z" transform="translate(-35.6 -71.076)"/>
                    </g>
                  </g>
                </g>
              </g>
            </g>
          </g>
        </g>
        <path id="Path_71" data-name="Path 71" d="M48.09,106.884s-3.948,20.528-1.87,28.726c3.117,12.466-1.385,29.268-1.385,37.33,0,5.217,2.078,19.783,2.216,25.61.069,1.761,1.316,5.217.416,6.03-.416.339-2.909-.406-4.364-1.084a1.77,1.77,0,0,1-1.039-1.829l.831-3.523,1.177-4.607L35.9,118.47s-2.632-16.734-1.178-16.8C36.246,101.668,48.09,106.884,48.09,106.884Z" transform="translate(-21.14 -17.042)" opacity="0.07"/>
        <path id="Path_72" data-name="Path 72" d="M39.409,76.658,52.154,72.8l.623,35.3L41.071,112.43Z" transform="translate(-19.663 -24.553)" fill="#fff"/>
        <path id="Path_73" data-name="Path 73" d="M49.3,72.8l15.03,4.4v34.688l-14.407-3.794Z" transform="translate(-16.811 -24.553)" fill="#fff"/>
        <path id="Path_74" data-name="Path 74" d="M60.984,77.186,75.391,72.85l-2.009,18.36L69.85,93.785a1.578,1.578,0,0,0-.693,1.084l-.139.678a1.461,1.461,0,0,0,.139.948l.623,1.491a2.56,2.56,0,0,0,1.039,1.22l2.078,1.084-.139,7.453L60.915,112.01V77.186Z" transform="translate(-13.462 -24.539)" fill="#e1e6fc"/>
        <path id="Path_75" data-name="Path 75" d="M42.54,76.742,28.549,72.474l1.939,18.631,3.463,2.575a1.857,1.857,0,0,1,.693,1.084l.139.678a1.461,1.461,0,0,1-.139.948L34.09,97.88a2.56,2.56,0,0,1-1.039,1.22l-2.009,1.084.139,7.859L44.2,112.514Z" transform="translate(-22.794 -24.637)" fill="#e1e6fc"/>
        <path id="Path_76" data-name="Path 76" d="M49.087,72.932l.277-.136.277.068.623,35.366-.277-.135-.416.135Z" transform="translate(-16.873 -24.553)" fill="#e1e6fc"/>
      </g>
      <g id="Boy" transform="translate(110.084 102.767)">
        <g id="Group_17" data-name="Group 17" transform="translate(2.38 121.685)">
          <path id="Path_77" data-name="Path 77" d="M120.571,184.058c-2.009-.136-4.364-2.371-4.364-2.371l-4.571-.61s-1.385,4.2.139,5.081,10.667,1.152,10.667,0C122.51,185.074,122.3,184.126,120.571,184.058Z" transform="translate(-80.47 -177.351)" fill="#4b44be"/>
          <path id="Path_78" data-name="Path 78" d="M96.316,184.692c-1.8-.948-2.771-4.065-2.771-4.065l-3.81-2.507s-3.255,3.184-2.216,4.607c.97,1.423,9,5.759,9.559,4.743C97.563,186.386,97.84,185.573,96.316,184.692Z" transform="translate(-87.315 -178.12)" fill="#4b44be"/>
        </g>
        <path id="Path_79" data-name="Path 79" d="M103.706,89.351s4.364-9.079,11.429-4.336,7.2,10.908,5.056,13.889c-2.494,3.523-1.87,6.369-1.385,7.52a1.242,1.242,0,0,0,.693.745l11.914,6.572,4.779,4.4,11.429-14.092a6.831,6.831,0,0,1,5.195-2.575,8.841,8.841,0,0,1,4.849,1.084s.346,1.423-3.74,2.575l-4.087,1.084-10.39,18.157a6.485,6.485,0,0,1-6.372-1.423,71.428,71.428,0,0,1-8.1-7.656l-.346,42.141,1.247,12.06-.554,7.114c.069.678-.277,7.724-.277,8.333l-.831,10.908-.97,11.043-4.156-.542-.693-7.995-1.662-28.726-.208-25.948-7.2,16.26.277,9.485-5.957,18.022a20.438,20.438,0,0,1-.9,2.168l-8.52,15.718L90.2,202.9l4.571-11.314c.485-.949,2.84-8.469,3.186-9.553L101,167.942l13.23-49.322-6.649,3.32s-4.849,10.637-5.61,11.721S92.347,145.719,92,147.142s-1.8,4.268-3.671,4.946c-1.87.745-5.195,1.9-.346-4.946,3.81-5.42,6.234-9.417,7.065-10.908l.623-1.22,4.987-12.331,7.965-12.534,1.108-.745,2.286-1.762a1.218,1.218,0,0,0,.416-.948,6.65,6.65,0,0,0-2.494-4.2C107.308,100.462,101.975,96.6,103.706,89.351Z" transform="translate(-85.468 -81.012)" fill="url(#linear-gradient-5)"/>
        <path id="Path_80" data-name="Path 80" d="M101.869,132.824l-4.5,23.645L106.3,158.3l5.541-19.648,1.385,19.58h9.281l.9-30.488Z" transform="translate(-82.038 -69.54)" fill="url(#linear-gradient-6)"/>
        <path id="Path_81" data-name="Path 81" d="M97.1,118.148s2.84-10.095,8.589-13.415c.623-.339,1.662-1.355,1.732-.745.139,1.084.762,3.659,3.325,3.659a5.037,5.037,0,0,0,5.264-5.149c0-.542,2.286-.407,4.294-.135a8.656,8.656,0,0,1,5.056,2.439l3.81,5.217-3.533,3.794-1.108.61-1.108,20.122s-8.242,3.726-15.585,4.743a57.4,57.4,0,0,1-5.957.339l1.455-20.732Z" transform="translate(-82.115 -76.204)" fill="url(#linear-gradient-7)"/>
        <path id="Path_82" data-name="Path 82" d="M102.282,95.132a41.417,41.417,0,0,1,4.225-4.268c2.147-1.762,3.255-2.778,3.255-2.778a25.563,25.563,0,0,0,4.156,2.507c1.178.407,2.978,1.152,2.978,1.152s.97-3.252-1.455-3.659-9.974-3.049-11.5-1.9c-1.593,1.152-4.225,4.472-4.571,6.1a4.829,4.829,0,0,0,1.178,4.065c.346.2-.623-1.626-.069-1.965C100.758,94.048,102.282,95.132,102.282,95.132Z" transform="translate(-81.481 -80.425)" fill="url(#linear-gradient-8)"/>
        <path id="Path_83" data-name="Path 83" d="M99.417,93.417l23.273-5.352s.416-1.084-.416-1.084c-.831-.068-6.165,1.694-6.165,1.694a10.1,10.1,0,0,0-9.836-6.436s.277-.677-.139-.677a8.359,8.359,0,0,0-2.494.61c-.139.135.277.61.069.745C103.573,83.119,97.062,86.168,99.417,93.417Z" transform="translate(-81.594 -81.555)" fill="#4b44be"/>
        <path id="Path_84" data-name="Path 84" d="M112.713,96.345a8.551,8.551,0,0,1-2.771,2.236c-1.247.407-.554.407,0,1.9a8.47,8.47,0,0,0,1.108,2.236S111.743,96.887,112.713,96.345Z" transform="translate(-78.613 -77.708)" opacity="0.07"/>
        <path id="Path_85" data-name="Path 85" d="M103.786,82.689s1.039.949.346,3.591-.9,3.388-.346,4.336a1.483,1.483,0,0,1,.139,1.558l-4.571,1.084C99.491,93.123,96.582,86.619,103.786,82.689Z" transform="translate(-81.599 -81.26)" opacity="0.07"/>
        <path id="Path_86" data-name="Path 86" d="M102.316,116.25a9.342,9.342,0,0,0,1.593-3.862c.139-1.829-.693,3.659.277,6.978.9,3.32-.139,6.165,1.732,7.317s.416,5.149.831,6.843a3.273,3.273,0,0,0,2.009,2.236s-.277.881-3.463,1.084c-3.255.135-4.433.135-4.433.135Z" transform="translate(-81.03 -73.629)" opacity="0.07"/>
      </g>
      <g id="bag" transform="translate(160.873 123.393)">
        <path id="Path_87" data-name="Path 87" d="M159.942,106.775s4.987,19.648,4.225,21.816-4.849,2.642-6.649,3.049-18.147,5.081-19.81,5.149-1.524.339-2.286.339-9.836-3.32-10.113-4.472a7.658,7.658,0,0,1-.346-3.388c.277-1.49,4.433-20.19,5.541-20.6C131.544,108.333,159.942,106.775,159.942,106.775Z" transform="translate(-124.891 -95.62)" fill="url(#linear-gradient-9)"/>
        <path id="Path_88" data-name="Path 88" d="M159.538,110.816s-.346-3.049-.831-3.523c-.485-.407-1.87-2.439-3.255-2.507s-23.134,2.846-23.966,3.049a3.6,3.6,0,0,0-2.286,1.355c-.346.745,3.186,1.626,3.81,3.93s13.091,7.249,16.208,7.588C152.335,121.114,159.538,110.816,159.538,110.816Z" transform="translate(-123.656 -96.138)" fill="url(#linear-gradient-10)"/>
        <path id="Path_89" data-name="Path 89" d="M149.981,107.033s-2.355-5.488-3.463-6.5c-.97-.949-4.571-2.913-6.719.068a12.971,12.971,0,0,0-2.216,7.724c0,.474,2.424.068,2.424.068s-.762-4-.069-5.352c.623-1.287.97-2.778,3.255-2.642s3.048,1.49,3.74,2.778a38.171,38.171,0,0,1,1.455,3.93A6.149,6.149,0,0,0,149.981,107.033Z" transform="translate(-121.233 -97.64)" fill="#7a5bf5"/>
        <path id="Path_90" data-name="Path 90" d="M147.07,107.655s-2.355-6.707-3.463-7.995c-.97-1.152-4.779-3.388-6.926.271a16.549,16.549,0,0,0-1.939,9.214c0,.542,2.424.068,2.424.068s-.693-4.878-.069-6.572c.623-1.558.97-3.388,3.186-3.184s3.048,1.829,3.74,3.388c.554,1.558,1.039,3.184,1.455,4.81C145.477,107.926,147.07,107.655,147.07,107.655Z" transform="translate(-122.063 -97.923)" fill="#7a5bf5"/>
        <path id="Path_91" data-name="Path 91" d="M133.16,112.808s2.078,18.835,1.8,20.122-.97,3.049-1.455,3.049-1.316-.068-.97-.542a8.514,8.514,0,0,0,1.247-5.488c-.346-3.049-1.524-18.5-1.524-18.5Z" transform="translate(-122.767 -94.404)" fill="#7a5bf5"/>
        <ellipse id="Ellipse_12" data-name="Ellipse 12" cx="1.247" cy="1.355" rx="1.247" ry="1.355" transform="translate(24.939 23.282)" fill="#fff"/>
      </g>
    </g>
  </g>
</svg>
